# MagicaVoxel @ Ephtracy

# group
g ComputerDesk

# material
mtllib ComputerDesk.mtl
usemtl palette

# normals
vn -1 0 0
vn 1 0 0
vn 0 0 1
vn 0 0 -1
vn 0 -1 0
vn 0 1 0

# texcoords
vt 0.306641 0.5
vt 0.580078 0.5
vt 0.826172 0.5
vt 0.845703 0.5

# verts
v -12 0 -4
v -12 0 -5
v -12 31 10
v -12 31 -4
v -12 32 10
v -12 32 -5
v -11 0 12
v -11 0 -4
v -11 1 12
v -11 1 -4
v -10 29 8
v -10 29 -4
v -10 31 8
v -10 31 -4
v -6 32 8
v -6 32 -2
v -6 33 8
v -6 33 -1
v -6 40 -1
v -6 40 -2
v -5 34 -0
v -5 34 -1
v -5 35 -0
v -5 35 -1
v -5 38 -0
v -5 38 -1
v -5 39 -0
v -5 39 -1
v -4 39 -0
v -4 39 -1
v -4 40 -0
v -4 40 -1
v -3 35 -0
v -3 35 -1
v -3 36 -0
v -3 36 -1
v -3 37 -0
v -3 37 -1
v -3 38 -0
v -3 38 -1
v -3 39 -0
v -3 39 -1
v -2 37 -0
v -2 37 -1
v -2 38 -0
v -2 38 -1
v -1 36 -0
v -1 36 -1
v -1 37 -0
v -1 37 -1
v 1 35 -0
v 1 35 -1
v 1 36 -0
v 1 36 -1
v 1 38 -0
v 1 38 -1
v 1 39 -0
v 1 39 -1
v 2 36 -0
v 2 36 -1
v 2 37 -0
v 2 37 -1
v 12 0 12
v 12 0 -4
v 12 1 12
v 12 1 -4
v 12 29 8
v 12 29 -4
v 12 31 8
v 12 31 -4
v -10 0 12
v -10 0 -4
v -10 1 12
v -10 1 -4
v -9 29 8
v -9 29 -4
v -9 31 8
v -9 31 -4
v -4 38 -0
v -4 38 -1
v -4 39 -0
v -4 39 -1
v -2 36 -0
v -2 36 -1
v -2 37 -0
v -2 37 -1
v -1 35 -0
v -1 35 -1
v -1 36 -0
v -1 36 -1
v -1 37 -0
v -1 37 -1
v -1 38 -0
v -1 38 -1
v 0 36 -0
v 0 36 -1
v 0 37 -0
v 0 37 -1
v 0 38 -0
v 0 38 -1
v 0 39 -0
v 0 39 -1
v 1 39 -0
v 1 39 -1
v 1 40 -0
v 1 40 -1
v 2 38 -0
v 2 38 -1
v 2 39 -0
v 2 39 -1
v 3 36 -0
v 3 36 -1
v 3 37 -0
v 3 37 -1
v 5 35 -0
v 5 35 -1
v 5 36 -0
v 5 36 -1
v 6 34 -0
v 6 34 -1
v 6 35 -0
v 6 35 -1
v 7 32 8
v 7 32 -2
v 7 33 8
v 7 33 -1
v 7 40 -1
v 7 40 -2
v 13 0 12
v 13 0 -4
v 13 1 12
v 13 1 -4
v 13 29 8
v 13 29 -4
v 13 31 8
v 13 31 -4
v 14 0 -4
v 14 0 -5
v 14 31 10
v 14 31 -4
v 14 32 10
v 14 32 -5
v -11 0 12
v -11 1 12
v -10 0 12
v -10 1 12
v 12 0 12
v 12 1 12
v 13 0 12
v 13 1 12
v -12 31 10
v -12 32 10
v 14 31 10
v 14 32 10
v -10 29 8
v -10 31 8
v -9 29 8
v -9 31 8
v -6 32 8
v -6 33 8
v 7 32 8
v 7 33 8
v 12 29 8
v 12 31 8
v 13 29 8
v 13 31 8
v -5 34 -0
v -5 35 -0
v -5 38 -0
v -5 39 -0
v -4 38 -0
v -4 39 -0
v -4 40 -0
v -3 35 -0
v -3 36 -0
v -3 37 -0
v -3 38 -0
v -3 39 -0
v -2 36 -0
v -2 37 -0
v -2 38 -0
v -1 35 -0
v -1 36 -0
v -1 37 -0
v -1 38 -0
v 0 36 -0
v 0 37 -0
v 0 38 -0
v 0 39 -0
v 1 35 -0
v 1 36 -0
v 1 38 -0
v 1 39 -0
v 1 40 -0
v 2 36 -0
v 2 37 -0
v 2 38 -0
v 2 39 -0
v 3 36 -0
v 3 37 -0
v 5 35 -0
v 5 36 -0
v 6 34 -0
v 6 35 -0
v -6 33 -1
v -6 40 -1
v -5 34 -1
v -5 35 -1
v -5 38 -1
v -5 39 -1
v -4 38 -1
v -4 39 -1
v -4 40 -1
v -3 35 -1
v -3 36 -1
v -3 37 -1
v -3 38 -1
v -3 39 -1
v -2 36 -1
v -2 37 -1
v -2 38 -1
v -1 35 -1
v -1 36 -1
v -1 37 -1
v -1 38 -1
v 0 36 -1
v 0 37 -1
v 0 38 -1
v 0 39 -1
v 1 35 -1
v 1 36 -1
v 1 38 -1
v 1 39 -1
v 1 40 -1
v 2 36 -1
v 2 37 -1
v 2 38 -1
v 2 39 -1
v 3 36 -1
v 3 37 -1
v 5 35 -1
v 5 36 -1
v 6 34 -1
v 6 35 -1
v 7 33 -1
v 7 40 -1
v -12 0 -4
v -12 31 -4
v -11 0 -4
v -11 1 -4
v -10 0 -4
v -10 1 -4
v -10 29 -4
v -10 31 -4
v -9 29 -4
v -9 31 -4
v 12 0 -4
v 12 1 -4
v 12 29 -4
v 12 31 -4
v 13 0 -4
v 13 1 -4
v 13 29 -4
v 13 31 -4
v 14 0 -4
v 14 31 -4
v -6 32 -2
v -6 40 -2
v 7 32 -2
v 7 40 -2
v -12 0 -5
v -12 32 -5
v 14 0 -5
v 14 32 -5
v -11 0 12
v -10 0 12
v 12 0 12
v 13 0 12
v -12 0 -4
v -11 0 -4
v -10 0 -4
v 12 0 -4
v 13 0 -4
v 14 0 -4
v -12 0 -5
v 14 0 -5
v -10 29 8
v -9 29 8
v 12 29 8
v 13 29 8
v -10 29 -4
v -9 29 -4
v 12 29 -4
v 13 29 -4
v -12 31 10
v 14 31 10
v -10 31 8
v -9 31 8
v 12 31 8
v 13 31 8
v -12 31 -4
v -10 31 -4
v -9 31 -4
v 12 31 -4
v 13 31 -4
v 14 31 -4
v -5 34 -0
v 6 34 -0
v -5 34 -1
v 6 34 -1
v -1 36 -0
v 0 36 -0
v -1 36 -1
v 0 36 -1
v -2 37 -0
v -1 37 -0
v -2 37 -1
v -1 37 -1
v -5 38 -0
v -4 38 -0
v -3 38 -0
v -2 38 -0
v -1 38 -0
v 0 38 -0
v 1 38 -0
v 2 38 -0
v -5 38 -1
v -4 38 -1
v -3 38 -1
v -2 38 -1
v -1 38 -1
v 0 38 -1
v 1 38 -1
v 2 38 -1
v -4 39 -0
v -3 39 -0
v 0 39 -0
v 1 39 -0
v -4 39 -1
v -3 39 -1
v 0 39 -1
v 1 39 -1
v -11 1 12
v -10 1 12
v 12 1 12
v 13 1 12
v -11 1 -4
v -10 1 -4
v 12 1 -4
v 13 1 -4
v -12 32 10
v 14 32 10
v -6 32 8
v 7 32 8
v -6 32 -2
v 7 32 -2
v -12 32 -5
v 14 32 -5
v -6 33 8
v 7 33 8
v -6 33 -1
v 7 33 -1
v -5 35 -0
v -3 35 -0
v -1 35 -0
v 1 35 -0
v 5 35 -0
v 6 35 -0
v -5 35 -1
v -3 35 -1
v -1 35 -1
v 1 35 -1
v 5 35 -1
v 6 35 -1
v -2 36 -0
v -1 36 -0
v 1 36 -0
v 2 36 -0
v 3 36 -0
v 5 36 -0
v -2 36 -1
v -1 36 -1
v 1 36 -1
v 2 36 -1
v 3 36 -1
v 5 36 -1
v -3 37 -0
v -2 37 -0
v -1 37 -0
v 0 37 -0
v 2 37 -0
v 3 37 -0
v -3 37 -1
v -2 37 -1
v -1 37 -1
v 0 37 -1
v 2 37 -1
v 3 37 -1
v -5 39 -0
v -4 39 -0
v 1 39 -0
v 2 39 -0
v -5 39 -1
v -4 39 -1
v 1 39 -1
v 2 39 -1
v -4 40 -0
v 1 40 -0
v -6 40 -1
v -4 40 -1
v 1 40 -1
v 7 40 -1
v -6 40 -2
v 7 40 -2

# faces
f 4/1/1 2/1/1 1/1/1
f 5/1/1 4/1/1 3/1/1
f 6/1/1 2/1/1 4/1/1
f 6/1/1 4/1/1 5/1/1
f 9/1/1 8/1/1 7/1/1
f 10/1/1 8/1/1 9/1/1
f 13/1/1 12/1/1 11/1/1
f 14/1/1 12/1/1 13/1/1
f 17/4/1 16/4/1 15/4/1
f 18/4/1 16/4/1 17/4/1
f 19/4/1 16/4/1 18/4/1
f 20/4/1 16/4/1 19/4/1
f 23/2/1 22/2/1 21/2/1
f 24/2/1 22/2/1 23/2/1
f 27/3/1 26/3/1 25/3/1
f 28/3/1 26/3/1 27/3/1
f 31/3/1 30/3/1 29/3/1
f 32/3/1 30/3/1 31/3/1
f 35/2/1 34/2/1 33/2/1
f 36/2/1 34/2/1 35/2/1
f 37/3/1 36/3/1 35/3/1
f 38/3/1 36/3/1 37/3/1
f 41/3/1 40/3/1 39/3/1
f 42/3/1 40/3/1 41/3/1
f 45/3/1 44/3/1 43/3/1
f 46/3/1 44/3/1 45/3/1
f 49/3/1 48/3/1 47/3/1
f 50/3/1 48/3/1 49/3/1
f 53/2/1 52/2/1 51/2/1
f 54/2/1 52/2/1 53/2/1
f 57/3/1 56/3/1 55/3/1
f 58/3/1 56/3/1 57/3/1
f 61/2/1 60/2/1 59/2/1
f 62/2/1 60/2/1 61/2/1
f 65/1/1 64/1/1 63/1/1
f 66/1/1 64/1/1 65/1/1
f 69/1/1 68/1/1 67/1/1
f 70/1/1 68/1/1 69/1/1
f 71/1/2 72/1/2 73/1/2
f 73/1/2 72/1/2 74/1/2
f 75/1/2 76/1/2 77/1/2
f 77/1/2 76/1/2 78/1/2
f 79/3/2 80/3/2 81/3/2
f 81/3/2 80/3/2 82/3/2
f 83/3/2 84/3/2 85/3/2
f 85/3/2 84/3/2 86/3/2
f 87/2/2 88/2/2 89/2/2
f 89/2/2 88/2/2 90/2/2
f 91/3/2 92/3/2 93/3/2
f 93/3/2 92/3/2 94/3/2
f 95/3/2 96/3/2 97/3/2
f 97/3/2 96/3/2 98/3/2
f 99/3/2 100/3/2 101/3/2
f 101/3/2 100/3/2 102/3/2
f 103/3/2 104/3/2 105/3/2
f 105/3/2 104/3/2 106/3/2
f 107/3/2 108/3/2 109/3/2
f 109/3/2 108/3/2 110/3/2
f 111/2/2 112/2/2 113/2/2
f 113/2/2 112/2/2 114/2/2
f 115/2/2 116/2/2 117/2/2
f 117/2/2 116/2/2 118/2/2
f 119/2/2 120/2/2 121/2/2
f 121/2/2 120/2/2 122/2/2
f 123/4/2 124/4/2 125/4/2
f 125/4/2 124/4/2 126/4/2
f 126/4/2 124/4/2 127/4/2
f 127/4/2 124/4/2 128/4/2
f 129/1/2 130/1/2 131/1/2
f 131/1/2 130/1/2 132/1/2
f 133/1/2 134/1/2 135/1/2
f 135/1/2 134/1/2 136/1/2
f 137/1/2 138/1/2 140/1/2
f 139/1/2 140/1/2 141/1/2
f 140/1/2 138/1/2 142/1/2
f 141/1/2 140/1/2 142/1/2
f 145/1/3 144/1/3 143/1/3
f 146/1/3 144/1/3 145/1/3
f 149/1/3 148/1/3 147/1/3
f 150/1/3 148/1/3 149/1/3
f 153/1/3 152/1/3 151/1/3
f 154/1/3 152/1/3 153/1/3
f 157/1/3 156/1/3 155/1/3
f 158/1/3 156/1/3 157/1/3
f 161/4/3 160/4/3 159/4/3
f 162/4/3 160/4/3 161/4/3
f 165/1/3 164/1/3 163/1/3
f 166/1/3 164/1/3 165/1/3
f 171/3/3 170/3/3 169/3/3
f 172/3/3 170/3/3 171/3/3
f 174/2/3 168/2/3 167/2/3
f 178/3/3 173/3/3 172/3/3
f 179/3/3 176/3/3 175/3/3
f 179/2/3 175/2/3 174/2/3
f 180/3/3 176/3/3 179/3/3
f 181/3/3 178/3/3 177/3/3
f 182/2/3 174/2/3 167/2/3
f 182/2/3 179/2/3 174/2/3
f 183/2/3 179/2/3 182/2/3
f 184/3/3 181/3/3 180/3/3
f 185/3/3 178/3/3 181/3/3
f 185/3/3 181/3/3 184/3/3
f 186/3/3 184/3/3 183/3/3
f 187/3/3 184/3/3 186/3/3
f 188/3/3 178/3/3 185/3/3
f 189/3/3 173/3/3 178/3/3
f 189/3/3 178/3/3 188/3/3
f 190/2/3 182/2/3 167/2/3
f 193/3/3 173/3/3 189/3/3
f 194/3/3 173/3/3 193/3/3
f 195/2/3 191/2/3 190/2/3
f 197/3/3 193/3/3 192/3/3
f 198/3/3 193/3/3 197/3/3
f 199/2/3 196/2/3 195/2/3
f 199/2/3 195/2/3 190/2/3
f 200/2/3 196/2/3 199/2/3
f 201/2/3 190/2/3 167/2/3
f 201/2/3 199/2/3 190/2/3
f 202/2/3 199/2/3 201/2/3
f 203/2/3 201/2/3 167/2/3
f 204/2/3 201/2/3 203/2/3
f 207/4/3 206/4/3 205/4/3
f 208/4/3 206/4/3 207/4/3
f 209/4/3 206/4/3 208/4/3
f 210/4/3 206/4/3 209/4/3
f 211/4/3 209/4/3 208/4/3
f 212/4/3 206/4/3 210/4/3
f 213/4/3 206/4/3 212/4/3
f 214/4/3 211/4/3 208/4/3
f 214/4/3 212/4/3 211/4/3
f 215/4/3 212/4/3 214/4/3
f 216/4/3 212/4/3 215/4/3
f 217/4/3 212/4/3 216/4/3
f 218/4/3 212/4/3 217/4/3
f 220/4/3 217/4/3 216/4/3
f 221/4/3 217/4/3 220/4/3
f 223/4/3 220/4/3 219/4/3
f 224/4/3 220/4/3 223/4/3
f 226/4/3 223/4/3 222/4/3
f 227/4/3 225/4/3 224/4/3
f 228/4/3 225/4/3 227/4/3
f 230/4/3 228/4/3 227/4/3
f 230/4/3 229/4/3 228/4/3
f 230/4/3 227/4/3 226/4/3
f 230/4/3 226/4/3 222/4/3
f 231/4/3 229/4/3 230/4/3
f 232/4/3 229/4/3 231/4/3
f 233/4/3 229/4/3 232/4/3
f 235/4/3 232/4/3 231/4/3
f 236/4/3 232/4/3 235/4/3
f 237/4/3 232/4/3 236/4/3
f 238/4/3 234/4/3 233/4/3
f 240/4/3 237/4/3 236/4/3
f 240/4/3 238/4/3 237/4/3
f 242/4/3 240/4/3 239/4/3
f 243/4/3 207/4/3 205/4/3
f 244/4/3 242/4/3 241/4/3
f 245/4/3 243/4/3 205/4/3
f 245/4/3 244/4/3 243/4/3
f 246/4/3 242/4/3 244/4/3
f 246/4/3 244/4/3 245/4/3
f 246/4/3 234/4/3 238/4/3
f 246/4/3 238/4/3 240/4/3
f 246/4/3 240/4/3 242/4/3
f 249/1/3 248/1/3 247/1/3
f 250/1/3 248/1/3 249/1/3
f 252/1/3 248/1/3 250/1/3
f 253/1/3 248/1/3 252/1/3
f 254/1/3 248/1/3 253/1/3
f 255/1/3 252/1/3 251/1/3
f 255/1/3 253/1/3 252/1/3
f 257/1/3 255/1/3 251/1/3
f 257/1/3 256/1/3 255/1/3
f 258/1/3 256/1/3 257/1/3
f 259/1/3 256/1/3 258/1/3
f 260/1/3 256/1/3 259/1/3
f 262/1/3 259/1/3 258/1/3
f 263/1/3 259/1/3 262/1/3
f 265/1/3 262/1/3 261/1/3
f 265/1/3 264/1/3 263/1/3
f 265/1/3 263/1/3 262/1/3
f 266/1/3 264/1/3 265/1/3
f 267/4/4 268/4/4 269/4/4
f 269/4/4 268/4/4 270/4/4
f 271/1/4 272/1/4 273/1/4
f 273/1/4 272/1/4 274/1/4
f 280/1/5 276/1/5 275/1/5
f 281/1/5 276/1/5 280/1/5
f 282/1/5 278/1/5 277/1/5
f 283/1/5 278/1/5 282/1/5
f 285/1/5 281/1/5 280/1/5
f 285/1/5 284/1/5 283/1/5
f 285/1/5 283/1/5 282/1/5
f 285/1/5 282/1/5 281/1/5
f 285/1/5 280/1/5 279/1/5
f 286/1/5 284/1/5 285/1/5
f 291/1/5 288/1/5 287/1/5
f 292/1/5 288/1/5 291/1/5
f 293/1/5 290/1/5 289/1/5
f 294/1/5 290/1/5 293/1/5
f 297/1/5 296/1/5 295/1/5
f 298/1/5 296/1/5 297/1/5
f 299/1/5 296/1/5 298/1/5
f 300/1/5 296/1/5 299/1/5
f 301/1/5 297/1/5 295/1/5
f 302/1/5 297/1/5 301/1/5
f 303/1/5 299/1/5 298/1/5
f 304/1/5 299/1/5 303/1/5
f 305/1/5 296/1/5 300/1/5
f 306/1/5 296/1/5 305/1/5
f 309/2/5 308/2/5 307/2/5
f 310/2/5 308/2/5 309/2/5
f 313/3/5 312/3/5 311/3/5
f 314/3/5 312/3/5 313/3/5
f 317/3/5 316/3/5 315/3/5
f 318/3/5 316/3/5 317/3/5
f 327/3/5 320/3/5 319/3/5
f 328/3/5 320/3/5 327/3/5
f 329/3/5 322/3/5 321/3/5
f 330/3/5 322/3/5 329/3/5
f 331/3/5 324/3/5 323/3/5
f 332/3/5 324/3/5 331/3/5
f 333/3/5 326/3/5 325/3/5
f 334/3/5 326/3/5 333/3/5
f 339/3/5 336/3/5 335/3/5
f 340/3/5 336/3/5 339/3/5
f 341/3/5 338/3/5 337/3/5
f 342/3/5 338/3/5 341/3/5
f 343/1/6 344/1/6 347/1/6
f 347/1/6 344/1/6 348/1/6
f 345/1/6 346/1/6 349/1/6
f 349/1/6 346/1/6 350/1/6
f 351/1/6 352/1/6 353/1/6
f 353/1/6 352/1/6 354/1/6
f 351/1/6 353/1/6 355/1/6
f 354/1/6 352/1/6 356/1/6
f 351/1/6 355/1/6 357/1/6
f 355/1/6 356/1/6 357/1/6
f 356/1/6 352/1/6 358/1/6
f 357/1/6 356/1/6 358/1/6
f 359/4/6 360/4/6 361/4/6
f 361/4/6 360/4/6 362/4/6
f 363/2/6 364/2/6 369/2/6
f 369/2/6 364/2/6 370/2/6
f 365/2/6 366/2/6 371/2/6
f 371/2/6 366/2/6 372/2/6
f 367/2/6 368/2/6 373/2/6
f 373/2/6 368/2/6 374/2/6
f 375/2/6 376/2/6 381/2/6
f 381/2/6 376/2/6 382/2/6
f 377/2/6 378/2/6 383/2/6
f 383/2/6 378/2/6 384/2/6
f 379/2/6 380/2/6 385/2/6
f 385/2/6 380/2/6 386/2/6
f 387/3/6 388/3/6 393/3/6
f 393/3/6 388/3/6 394/3/6
f 389/3/6 390/3/6 395/3/6
f 395/3/6 390/3/6 396/3/6
f 391/2/6 392/2/6 397/2/6
f 397/2/6 392/2/6 398/2/6
f 399/3/6 400/3/6 403/3/6
f 403/3/6 400/3/6 404/3/6
f 401/3/6 402/3/6 405/3/6
f 405/3/6 402/3/6 406/3/6
f 407/3/6 408/3/6 410/3/6
f 410/3/6 408/3/6 411/3/6
f 409/4/6 410/4/6 413/4/6
f 411/4/6 412/4/6 413/4/6
f 410/4/6 411/4/6 413/4/6
f 413/4/6 412/4/6 414/4/6
